<svg width="467" height="472" viewBox="0 0 467 472" fill="none" xmlns="http://www.w3.org/2000/svg">
<path d="M478.323 34.2577C487.372 28.9454 489.639 17.8078 483.385 9.38124C477.132 0.954638 464.727 -1.57001 455.677 3.74228L478.323 34.2577ZM455.677 3.74228L30.6774 253.232L53.3226 283.747L478.323 34.2577L455.677 3.74228Z" fill="#FBFBFB"/>
<path d="M32.5054 271.456L32.5054 252.456H70.5054V271.456H32.5054ZM70.5054 271.456L70.5054 456.994H32.5054L32.5054 271.456H70.5054Z" fill="#FBFBFB"/>
<path d="M56.6892 469.95C53.9556 472.683 49.5234 472.683 46.7898 469.95L2.24203 425.402C-0.491642 422.668 -0.491642 418.236 2.24203 415.503C4.9757 412.769 9.40785 412.769 12.1415 415.503L51.7395 455.1L91.3375 415.503C94.0712 412.769 98.5033 412.769 101.237 415.503C103.971 418.236 103.971 422.668 101.237 425.402L56.6892 469.95ZM58.7395 268.49L58.7395 465L44.7395 465L44.7395 268.49L58.7395 268.49Z" fill="#FBFBFB"/>
</svg>
