<svg width="24" height="24" viewBox="0 0 24 24" fill="none" xmlns="http://www.w3.org/2000/svg">
<path id="Vector" opacity="0.4" d="M1.1471 1.16008C1.45491 0.852095 1.87234 0.679077 2.30759 0.679077C2.74285 0.679077 3.16028 0.852095 3.46809 1.16008L12.1562 9.85573L20.8444 1.16008C20.9958 1.00317 21.1769 0.878018 21.3772 0.791917C21.5775 0.705817 21.7929 0.660496 22.0108 0.658601C22.2287 0.656705 22.4449 0.698272 22.6466 0.780877C22.8483 0.863481 23.0316 0.985468 23.1857 1.13972C23.3399 1.29397 23.4617 1.4774 23.5443 1.6793C23.6268 1.8812 23.6683 2.09753 23.6664 2.31567C23.6645 2.53381 23.6193 2.74938 23.5332 2.94982C23.4472 3.15025 23.3222 3.33154 23.1654 3.48308L14.4772 12.1787L23.1654 20.8744C23.4644 21.1842 23.6298 21.5992 23.6261 22.03C23.6224 22.4607 23.4497 22.8728 23.1454 23.1774C22.8411 23.482 22.4294 23.6547 21.999 23.6585C21.5686 23.6622 21.154 23.4966 20.8444 23.1974L12.1562 14.5017L3.46809 23.1974C3.15851 23.4966 2.74388 23.6622 2.3135 23.6585C1.88312 23.6547 1.47143 23.482 1.16709 23.1774C0.862754 22.8728 0.690126 22.4607 0.686386 22.03C0.682646 21.5992 0.848094 21.1842 1.1471 20.8744L9.83525 12.1787L1.1471 3.48308C0.839373 3.175 0.666504 2.75721 0.666504 2.32158C0.666504 1.88596 0.839373 1.46816 1.1471 1.16008Z" fill="#818181"/>
</svg>
