<svg width="441" height="473" viewBox="0 0 441 473" fill="none" xmlns="http://www.w3.org/2000/svg">
<path d="M431.466 35.8574C440.224 30.077 442.638 18.2915 436.857 9.53372C431.077 0.775923 419.292 -1.63776 410.534 4.14261L431.466 35.8574ZM410.534 4.14261L32.5337 253.632L53.4663 285.347L431.466 35.8574L410.534 4.14261Z" fill="#0063CE"/>
<path d="M32.4541 272.456V253.456H70.4541V272.456H32.4541ZM70.4541 272.456L70.4541 457.994H32.4541L32.4541 272.456H70.4541Z" fill="#0063CE"/>
<path d="M56.6122 470.95C53.8785 473.683 49.4463 473.683 46.7127 470.95L2.16494 426.402C-0.568729 423.668 -0.568729 419.236 2.16494 416.503C4.89861 413.769 9.33076 413.769 12.0644 416.503L51.6624 456.1L91.2604 416.503C93.9941 413.769 98.4262 413.769 101.16 416.503C103.894 419.236 103.894 423.668 101.16 426.402L56.6122 470.95ZM58.6624 269.49L58.6624 466L44.6624 466L44.6624 269.49L58.6624 269.49Z" fill="#0063CE"/>
</svg>
