<svg width="113" height="157" viewBox="0 0 113 157" fill="none" xmlns="http://www.w3.org/2000/svg">
<path d="M3.06568 2.0546C0.141563 -0.243467 -3.60145 0.57794 -5.29458 3.88927C-6.9877 7.2006 -5.98979 11.7479 -3.06568 14.046L3.06568 2.0546ZM-3.06568 14.046L94.1142 90.42L100.246 78.4286L3.06568 2.0546L-3.06568 14.046Z" fill="#0063CE"/>
<path d="M101.409 85.4755V78.7415H87.9413V85.4755H101.409ZM87.9413 85.4755L87.9413 151.234H101.409L101.409 85.4755H87.9413Z" fill="#0063CE"/>
<path d="M92.859 155.826C93.8279 156.795 95.3987 156.795 96.3676 155.826L112.156 140.037C113.125 139.068 113.125 137.498 112.156 136.529C111.187 135.56 109.616 135.56 108.648 136.529L94.6133 150.563L80.5789 136.529C79.6101 135.56 78.0392 135.56 77.0703 136.529C76.1015 137.498 76.1015 139.068 77.0703 140.037L92.859 155.826ZM92.1323 84.4243L92.1323 154.072L97.0942 154.072L97.0942 84.4243L92.1323 84.4243Z" fill="#0063CE"/>
</svg>
