<svg width="403" height="438" viewBox="0 0 403 438" fill="none" xmlns="http://www.w3.org/2000/svg">
<path d="M30.174 2.95349C21.3108 -2.66394 9.57069 -0.0334971 3.95177 8.82875C-1.66715 17.691 0.962857 29.4291 9.82605 35.0465L30.174 2.95349ZM9.82605 35.0465L349.826 250.536L370.174 218.443L30.174 2.95349L9.82605 35.0465Z" fill="#0063CE"/>
<path d="M370.237 237.456V218.456H332.237V237.456H370.237ZM332.237 237.456L332.237 422.994H370.237L370.237 237.456H332.237Z" fill="#0063CE"/>
<path d="M346.071 435.95C348.805 438.683 353.237 438.683 355.97 435.95L400.518 391.402C403.252 388.668 403.252 384.236 400.518 381.503C397.784 378.769 393.352 378.769 390.619 381.503L351.021 421.1L311.423 381.503C308.689 378.769 304.257 378.769 301.523 381.503C298.79 384.236 298.79 388.668 301.523 391.402L346.071 435.95ZM344.021 234.49L344.021 431L358.021 431L358.021 234.49L344.021 234.49Z" fill="#0063CE"/>
</svg>
