<svg width="1370" height="511" viewBox="0 0 1370 511" fill="none" xmlns="http://www.w3.org/2000/svg">
<path d="M1 281.013C25.5074 311.29 78.3126 309.875 113.559 304.446C163.222 296.809 211.719 275.122 247.127 241.986C329.445 164.973 410.078 82.6021 527.918 82.9631C590.118 83.1508 663.041 123.636 715.457 152.758C766.772 181.273 795.572 224.299 881.146 260.929C930.549 282.082 963.561 197.719 1014.07 178.92C1064.83 160.035 1135.49 193.791 1183.58 170.127C1238.84 142.925 1295 115.406 1357.17 106.483C1422.17 97.1559 1485.94 111.32 1541 145.481" stroke="#3548FE" stroke-opacity="0.41" stroke-width="1.07975" stroke-miterlimit="10"/>
<path d="M2.58731 285.316C27.8399 315.622 79.7704 315.448 115.714 310.352C165.117 303.349 213.938 282.125 251.112 248.989C253.023 247.285 254.918 245.553 256.846 243.849C302.573 202.859 343.764 158.822 393.103 129.267C434.618 104.418 480.361 87.2223 532.842 87.9009C594.637 88.6228 665.454 129.05 717.012 158.923C767.501 188.189 796.868 231.143 880.384 266.416C929.61 287.063 964.5 207.724 1015.18 189.041C1026.07 185.027 1037.76 183.237 1049.9 182.674C1094.6 180.494 1145.58 195.264 1183.4 176.552C1193.12 171.744 1202.87 166.922 1212.65 162.157C1258.17 140.052 1305.26 119.824 1356.23 112.157C1420.96 102.426 1484.63 115.882 1539.45 150.823" stroke="#3548FE" stroke-opacity="0.41" stroke-width="1.07975" stroke-miterlimit="10"/>
<path d="M4.15857 289.618C30.14 319.953 81.1958 321.022 117.836 316.271C166.964 309.904 216.124 289.142 255.064 255.992C257.024 254.317 258.968 252.613 260.944 250.924C308.631 210.034 347.473 163.976 396.99 134.58C438.846 109.761 485.236 91.6404 537.718 92.8099C599.108 94.0661 667.803 134.45 718.503 165.074C768.165 195.091 797.986 238.16 879.558 271.874C928.557 292.116 965.375 217.716 1016.22 199.134C1027.11 195.149 1038.75 193.199 1050.74 192.362C1095.09 189.099 1145.32 201.761 1183.14 182.963C1192.83 178.14 1202.53 173.303 1212.26 168.495C1257.37 146.275 1304.46 125.801 1355.21 117.817C1419.65 107.681 1483.22 120.445 1537.83 156.136" stroke="#3548FE" stroke-opacity="0.41" stroke-width="1.07975" stroke-miterlimit="10"/>
<path d="M5.74606 293.906C32.4564 324.285 82.6375 326.566 119.974 322.162C168.827 316.401 218.295 296.116 259.033 262.98C261.057 261.334 263.034 259.659 265.058 257.998C314.737 217.21 351.199 169.131 400.894 139.893C443.09 115.103 490.128 96.0442 542.61 97.719C603.595 99.5093 670.184 139.85 720.025 171.21C768.878 201.978 799.217 245.062 878.765 277.317C927.569 297.097 966.282 227.692 1017.31 209.211C1028.21 205.255 1039.79 203.176 1051.63 202.036C1095.62 197.776 1145.09 208.244 1182.91 189.344C1192.58 184.522 1202.24 179.656 1211.92 174.805C1256.65 152.483 1303.7 131.75 1354.24 123.434C1418.4 112.894 1481.88 124.95 1536.25 161.406" stroke="#3548FE" stroke-opacity="0.41" stroke-width="1.07975" stroke-miterlimit="10"/>
<path d="M7.31726 298.209C34.7565 328.616 84.063 332.11 122.096 328.067C170.673 322.899 220.449 303.089 262.985 269.982C265.058 268.365 267.083 266.705 269.173 265.073C320.844 224.401 354.924 174.285 404.798 145.207C447.35 120.445 495.036 100.448 547.501 102.628C608.082 104.953 672.565 145.235 721.548 177.361C769.575 208.879 800.448 251.963 877.987 282.789C926.597 302.107 967.205 237.698 1018.41 219.318C1029.32 215.391 1040.82 213.168 1052.54 211.738C1096.17 206.41 1144.9 214.741 1182.72 195.755C1192.36 190.918 1201.98 186.038 1211.62 181.143C1255.95 158.721 1302.97 137.727 1353.3 129.093C1417.18 118.149 1480.55 129.498 1534.7 166.734" stroke="#3548FE" stroke-opacity="0.41" stroke-width="1.07975" stroke-miterlimit="10"/>
<path d="M8.9046 302.497C37.089 332.948 85.4883 337.64 124.25 333.958C172.536 329.367 222.604 310.049 266.97 276.97C269.092 275.382 271.165 273.751 273.303 272.148C326.999 231.591 358.666 179.44 408.718 150.52C451.61 125.787 499.944 104.851 552.409 107.537C612.584 110.396 674.946 150.635 723.07 183.497C770.271 215.781 801.679 258.836 877.194 288.232C925.625 307.089 968.112 247.661 1019.49 229.396C1030.43 225.498 1041.86 223.116 1053.43 221.412C1096.71 215.03 1144.67 221.224 1182.51 202.137C1192.11 197.3 1201.7 192.391 1211.29 187.467C1255.24 164.944 1302.23 143.676 1352.34 134.739C1415.95 123.376 1479.22 134.031 1533.14 172.033" stroke="#3548FE" stroke-opacity="0.41" stroke-width="1.07975" stroke-miterlimit="10"/>
<path d="M10.4757 306.8C39.389 337.279 86.9137 343.17 126.372 339.864C174.382 335.835 224.725 316.993 270.922 283.959C273.092 282.414 275.231 280.797 277.401 279.208C333.122 238.796 362.375 184.565 412.605 155.819C455.853 131.129 504.82 109.356 557.285 112.432C617.039 115.94 677.311 156.021 724.577 189.633C770.968 222.668 802.91 265.694 876.383 293.675C924.637 312.055 969.003 257.638 1020.56 239.46C1031.51 235.59 1042.88 233.064 1054.3 231.071C1097.23 223.606 1144.44 227.692 1182.28 208.518C1191.85 203.667 1201.41 198.744 1210.94 193.777C1254.48 171.152 1301.45 149.625 1351.34 140.355C1414.67 128.588 1477.84 138.536 1531.52 177.303" stroke="#3548FE" stroke-opacity="0.41" stroke-width="1.07975" stroke-miterlimit="10"/>
<path d="M12.0632 311.088C41.7053 341.611 88.3391 348.671 128.51 345.754C176.229 342.289 226.847 323.909 274.89 290.947C277.11 289.431 279.296 287.828 281.532 286.283C339.293 246.015 366.117 189.72 416.525 161.117C460.114 136.457 509.728 113.745 562.193 117.326C621.542 121.369 679.709 161.392 726.099 195.755C771.664 229.541 804.157 272.523 875.59 299.104C923.665 316.993 969.927 267.6 1021.65 249.523C1032.61 245.683 1043.9 242.997 1055.18 240.73C1097.74 232.197 1144.2 234.161 1182.05 214.886C1191.59 210.034 1201.12 205.082 1210.6 200.072C1253.75 177.346 1300.69 155.559 1350.37 145.972C1413.41 133.8 1476.48 143.055 1529.95 182.573" stroke="#3548FE" stroke-opacity="0.41" stroke-width="1.07975" stroke-miterlimit="10"/>
<path d="M13.6344 315.391C44.0216 345.942 89.7483 354.186 130.632 351.66C178.059 348.729 228.937 330.84 278.843 297.949C281.11 296.448 283.346 294.888 285.63 293.358C345.432 253.248 369.826 194.874 420.412 166.431C464.341 141.799 514.603 118.164 567.068 122.235C626.012 126.812 682.057 166.792 727.606 201.891C772.361 236.428 805.404 279.353 874.78 304.562C922.677 321.96 970.817 277.577 1022.7 259.616C1033.68 255.804 1044.91 252.959 1056.03 250.418C1098.26 240.802 1143.96 240.658 1181.81 221.282C1191.34 216.416 1200.81 211.449 1210.24 206.396C1253 183.569 1299.91 161.522 1349.38 151.603C1412.15 139.027 1475.12 147.574 1528.37 187.872" stroke="#3548FE" stroke-opacity="0.41" stroke-width="1.07975" stroke-miterlimit="10"/>
<path d="M15.2218 319.679C46.338 350.259 91.1738 359.673 132.77 357.55C179.906 355.154 231.027 337.727 282.811 304.923C285.128 303.45 287.411 301.92 289.744 300.418C351.604 260.482 373.552 200.014 424.316 171.73C468.601 147.127 519.495 122.553 571.96 127.13C630.499 132.241 684.438 172.177 729.128 208.028C773.057 243.315 806.668 286.182 873.986 310.005C921.722 326.898 971.724 287.554 1023.78 269.693C1034.77 265.925 1045.94 262.907 1056.93 260.106C1098.8 249.408 1143.73 247.141 1181.58 227.678C1191.08 222.798 1200.52 217.817 1209.9 212.72C1252.26 189.792 1299.17 167.485 1348.41 157.248C1410.9 144.268 1473.78 152.108 1526.78 193.171" stroke="#3548FE" stroke-opacity="0.41" stroke-width="1.07975" stroke-miterlimit="10"/>
<path d="M16.7929 323.981C48.638 354.605 92.5991 365.159 134.908 363.456C181.752 361.564 233.1 344.628 286.78 311.926C289.145 310.482 291.477 308.98 293.858 307.493C357.791 267.744 377.277 205.169 428.22 177.043C472.845 152.469 524.403 126.957 576.852 132.039C634.986 137.684 686.819 177.563 730.635 214.164C773.737 250.216 807.915 292.982 873.176 315.448C920.734 331.836 972.615 297.531 1024.85 279.771C1035.85 276.032 1046.95 272.855 1057.8 269.78C1099.3 257.984 1143.5 253.624 1181.36 234.074C1190.82 229.194 1200.21 224.184 1209.56 219.044C1251.53 196.015 1298.4 173.448 1347.43 162.893C1409.65 149.509 1472.42 156.642 1525.21 198.469" stroke="#3548FE" stroke-opacity="0.41" stroke-width="1.07975" stroke-miterlimit="10"/>
<path d="M18.3641 328.27C50.9381 358.922 94.0083 370.617 137.03 369.347C183.583 367.975 235.173 351.501 290.732 318.914C293.145 317.499 295.527 316.026 297.972 314.568C363.979 275.021 381.003 210.323 432.14 182.356C477.121 157.811 529.311 131.346 581.76 136.948C639.489 143.113 689.2 182.963 732.174 220.314C774.466 257.118 809.211 299.783 872.399 320.921C919.81 336.774 973.539 307.536 1025.95 289.878C1036.97 286.168 1048 282.832 1058.71 279.483C1099.85 266.589 1143.29 260.135 1181.16 240.485C1190.59 235.59 1199.95 230.566 1209.23 225.382C1250.81 202.252 1297.66 179.411 1346.46 168.539C1408.39 154.75 1471.07 161.175 1523.62 203.768" stroke="#3548FE" stroke-opacity="0.41" stroke-width="1.07975" stroke-miterlimit="10"/>
<path d="M19.9515 332.572C53.2706 363.268 95.4338 376.089 139.168 375.252C185.446 374.371 237.23 358.359 294.7 325.916C297.163 324.53 299.608 323.086 302.087 321.642C370.183 282.298 384.728 215.478 436.043 187.67C481.365 163.153 534.219 135.663 586.652 141.857C643.992 148.455 691.582 188.363 733.68 226.451C775.147 264.005 810.491 306.554 871.589 326.364C918.838 341.683 974.43 317.499 1027.02 299.956C1038.06 296.274 1049 292.78 1059.58 289.156C1100.37 275.166 1143.07 266.618 1180.94 246.867C1190.33 241.972 1199.66 236.919 1208.89 231.706C1250.09 208.461 1296.9 185.374 1345.49 174.184C1407.14 159.991 1469.71 165.723 1522.05 209.082" stroke="#3548FE" stroke-opacity="0.41" stroke-width="1.07975" stroke-miterlimit="10"/>
<path d="M21.5227 336.875C55.5707 367.6 96.843 381.547 141.29 381.157C187.276 380.753 239.271 365.203 298.653 332.904C301.163 331.547 303.658 330.118 306.185 328.717C376.37 289.589 388.438 220.632 439.931 192.983C485.593 168.51 539.094 140.066 591.527 146.766C648.463 153.898 693.947 193.762 735.186 232.601C775.827 270.906 811.754 313.326 870.795 331.821C917.899 346.592 975.337 327.49 1028.11 310.034C1039.16 306.381 1050.04 302.728 1060.47 298.83C1100.89 283.742 1142.84 273.101 1180.73 253.248C1190.1 248.339 1199.39 243.271 1208.57 238.016C1249.36 214.669 1296.15 191.322 1344.54 179.815C1405.91 165.204 1468.38 170.242 1520.48 214.366" stroke="#3548FE" stroke-opacity="0.41" stroke-width="1.07975" stroke-miterlimit="10"/>
<path d="M23.1102 341.163C57.8871 371.917 98.2847 387.279 143.444 387.048C189.139 386.817 241.345 372.032 302.621 339.892C305.164 338.55 307.724 337.164 310.315 335.778C382.59 296.895 392.18 225.772 443.851 198.282C489.869 173.838 544.003 144.456 596.451 151.66C652.982 159.327 696.344 199.134 736.742 238.723C776.572 277.793 813.082 320.04 870.034 337.265C916.992 351.458 976.276 337.467 1029.21 320.112C1040.27 316.488 1051.08 312.647 1061.38 308.504C1101.39 292.246 1142.64 279.569 1180.53 259.644C1189.88 254.735 1199.13 249.639 1208.26 244.34C1248.66 220.892 1295.42 197.285 1343.6 185.446C1404.69 170.43 1467.07 174.762 1518.94 219.65" stroke="#3548FE" stroke-opacity="0.41" stroke-width="1.07975" stroke-miterlimit="10"/>
<path d="M24.6814 345.466C60.1872 376.263 99.6939 392.405 145.566 392.968C190.985 393.516 243.321 378.76 306.574 346.909C309.165 345.596 311.789 344.253 314.413 342.881C388.843 304.331 395.889 230.956 447.738 203.624C494.097 179.209 548.894 148.903 601.327 156.613C657.453 164.814 698.709 204.577 738.232 244.917C777.236 284.738 814.362 326.826 869.208 342.766C916.02 356.381 977.151 347.501 1030.26 330.248C1041.34 326.653 1052.08 322.668 1062.24 318.235C1101.89 300.895 1142.39 286.11 1180.27 266.084C1189.59 261.16 1198.8 256.049 1207.87 250.707C1247.88 227.158 1294.61 203.292 1342.58 191.135C1403.4 175.715 1465.66 179.339 1517.32 225.007" stroke="#3548FE" stroke-opacity="0.41" stroke-width="1.07975" stroke-miterlimit="10"/>
<path d="M26.2687 349.754C99.0621 411.665 181.445 418.74 318.544 349.927C395.014 311.536 399.63 236.067 451.658 208.908C498.373 184.522 553.802 153.277 606.235 161.493C716.98 178.833 762.253 318.625 868.43 348.18C924.831 363.889 1004.99 355.154 1063.15 327.88C1112.06 304.937 1161.68 284.392 1207.57 256.988C1297.42 203.349 1423.81 147.228 1515.75 230.248" stroke="#3548FE" stroke-opacity="0.41" stroke-width="1.07975" stroke-miterlimit="10"/>
<path d="M25.0215 334.94C99.9207 401.27 186.984 403.854 323.841 339.661C400.943 303.494 408.296 235.504 459.952 213.586C506.44 193.864 554.742 172.408 612.487 182.428C722.973 201.617 770.968 332.182 874.683 354.287C931.845 366.473 1012.09 357.81 1068.6 330.349C1119.55 305.602 1162.76 276.711 1209.69 246.766C1296.56 191.351 1422.88 136.009 1516.99 217.34" stroke="#3548FE" stroke-opacity="0.41" stroke-width="1.07975" stroke-miterlimit="10"/>
<path d="M23.7581 320.112C100.779 390.86 192.54 388.983 329.121 329.381C406.887 295.437 417.027 234.912 468.245 218.25C514.571 203.176 555.697 191.467 618.74 203.364C729.015 224.17 780.103 345.451 880.935 360.395C939.167 369.029 1019.17 360.38 1074.06 332.818C1127.01 306.237 1163.86 269.087 1211.81 236.543C1295.78 179.555 1421.96 124.791 1518.24 204.432" stroke="#3548FE" stroke-opacity="0.41" stroke-width="1.07975" stroke-miterlimit="10"/>
<path d="M22.5108 305.298C101.638 380.464 198.161 374.169 334.402 319.116C412.848 287.424 425.823 234.334 476.538 222.913C522.767 212.503 556.637 210.482 624.992 224.299C735.057 246.549 789.611 358.316 887.188 366.502C946.747 371.498 1026.2 362.893 1079.52 335.287C1134.48 306.843 1164.97 261.55 1213.93 226.321C1295.12 167.932 1421.04 113.587 1519.49 191.51" stroke="#3548FE" stroke-opacity="0.41" stroke-width="1.07975" stroke-miterlimit="10"/>
<path d="M21.2636 290.485C102.496 370.068 203.814 359.384 339.698 308.865C418.841 279.439 434.699 233.814 484.832 227.606C531.044 221.888 557.593 229.454 631.261 245.249C741.163 268.813 800.982 387.698 893.456 372.624C953.599 362.82 1033.23 365.362 1085.01 337.77C1141.96 307.421 1166.15 254.086 1216.09 216.113C1294.57 156.468 1420.15 102.383 1520.75 178.617" stroke="#3548FE" stroke-opacity="0.41" stroke-width="1.07975" stroke-miterlimit="10"/>
<path d="M20.0001 275.657C103.355 359.658 209.483 344.628 344.979 298.585C424.851 271.441 443.656 230.811 493.125 232.269C539.37 233.641 558.548 248.354 637.513 266.185C747.254 290.961 813.066 401.342 899.709 378.717C960.143 362.936 1040.21 367.758 1090.47 340.225C1149.4 307.941 1167.31 246.65 1218.21 205.891C1294.08 145.134 1419.22 91.164 1522 165.694" stroke="#3548FE" stroke-opacity="0.41" stroke-width="1.07975" stroke-miterlimit="10"/>
<path d="M18.7529 260.843C104.213 349.263 215.217 329.916 350.276 288.319C430.893 263.485 452.646 232.919 501.434 236.933C547.76 240.745 559.536 267.21 643.782 287.12C753.393 313.023 825.263 413.427 905.977 384.824C966.606 363.34 1047.19 370.126 1095.95 342.693C1156.82 308.446 1168.56 239.286 1220.35 195.668C1293.71 133.887 1418.32 79.9599 1523.26 152.787" stroke="#3548FE" stroke-opacity="0.41" stroke-width="1.07975" stroke-miterlimit="10"/>
<path d="M17.4894 246.015C105.055 338.853 220.951 315.261 355.556 278.039C436.918 255.544 461.636 232.602 509.711 241.597C556.135 250.288 560.524 286.009 650.034 308.056C759.548 335.027 829.977 404.966 912.229 390.932C978.949 379.554 1054.12 372.465 1101.4 345.162C1164.2 308.908 1169.84 231.981 1222.47 185.446C1293.38 122.741 1417.39 68.7413 1524.49 139.879" stroke="#3548FE" stroke-opacity="0.41" stroke-width="1.07975" stroke-miterlimit="10"/>
<path d="M16.2422 231.201C105.93 328.457 226.718 300.649 360.853 267.773C442.992 247.646 470.61 232.356 518.021 246.275C564.525 259.919 561.545 304.764 656.303 328.992C765.719 356.973 840.181 415.477 918.498 397.039C987.112 380.883 1061.06 374.775 1106.9 347.631C1171.61 309.327 1171.22 224.733 1224.62 175.224C1293.19 111.652 1416.5 57.5228 1525.77 126.957" stroke="#3548FE" stroke-opacity="0.41" stroke-width="1.07975" stroke-miterlimit="10"/>
<path d="M14.995 216.373C106.789 318.047 232.5 286.081 366.149 257.493C449.067 239.748 479.567 232.168 526.314 250.938C572.851 269.607 562.565 323.462 662.555 349.927C771.907 378.876 850.24 425.641 924.751 403.147C995.147 381.893 1067.94 377.042 1112.35 350.1C1178.93 309.716 1172.63 217.542 1226.74 165.001C1293.04 100.65 1415.58 46.3187 1527.02 114.049" stroke="#3548FE" stroke-opacity="0.41" stroke-width="1.07975" stroke-miterlimit="10"/>
<path d="M13.7315 201.559C107.631 307.652 238.283 271.585 371.414 247.227C455.108 231.923 488.411 232.038 534.591 255.602C581.096 279.338 563.602 342.116 668.807 370.863C778.095 400.735 860.121 435.532 931.003 409.254C1002.99 382.558 1074.81 379.295 1117.81 352.569C1186.23 310.048 1174.1 210.395 1228.87 154.779C1292.98 89.6768 1414.66 35.1001 1528.25 101.141" stroke="#3548FE" stroke-opacity="0.41" stroke-width="1.07975" stroke-miterlimit="10"/>
<path d="M12.4843 186.745C108.506 297.256 244.098 257.132 376.711 236.962C461.199 224.112 497.239 231.937 542.901 260.28C589.308 289.099 564.687 360.727 675.076 391.798C784.331 422.552 869.775 445.205 937.272 415.347C1010.58 382.919 1081.68 381.518 1123.29 355.024C1193.51 310.337 1175.67 203.277 1231 144.542C1292.99 78.7471 1413.75 23.8671 1529.52 88.2042" stroke="#3548FE" stroke-opacity="0.41" stroke-width="1.07975" stroke-miterlimit="10"/>
<path d="M11.2371 171.917C109.364 286.846 249.897 242.723 382.007 226.696C467.273 216.344 506.018 231.822 551.194 264.958C597.472 298.888 565.772 379.295 681.328 412.748C790.551 444.368 879.153 454.792 943.524 421.469C1017.84 383.005 1088.51 383.742 1128.76 357.507C1200.73 310.597 1177.32 196.246 1233.14 134.334C1293.07 67.8606 1412.84 12.6774 1530.78 75.3107" stroke="#3548FE" stroke-opacity="0.41" stroke-width="1.07975" stroke-miterlimit="10"/>
<path d="M9.97363 157.104C110.206 276.451 255.68 228.386 387.288 216.431C473.347 208.62 514.717 231.721 559.488 269.621C605.571 308.648 566.874 397.79 687.581 433.684C796.787 466.155 888.24 464.293 949.776 427.576C1024.72 382.846 1095.33 385.936 1134.22 359.976C1207.89 310.799 1179.06 189.243 1235.26 124.112C1293.2 56.9886 1411.92 1.45892 1532.01 62.3885" stroke="#3548FE" stroke-opacity="0.41" stroke-width="1.07975" stroke-miterlimit="10"/>
<path d="M8.72635 142.276C111.081 266.041 261.462 214.077 392.584 206.151C479.421 200.909 523.415 231.576 567.781 274.285C613.621 318.394 568.008 416.257 693.849 454.619C803.056 487.914 897.085 473.793 956.045 433.684C1031.25 382.514 1102.15 388.116 1139.7 362.445C1215.03 310.944 1180.89 182.27 1237.4 113.89C1293.41 46.1309 1411.01 -9.74524 1533.27 49.4806" stroke="#3548FE" stroke-opacity="0.41" stroke-width="1.07975" stroke-miterlimit="10"/>
<path d="M7.4791 127.462C111.939 255.645 267.229 199.827 397.881 195.885C485.479 193.243 532.065 231.446 576.09 278.963C621.671 328.154 569.174 434.68 700.118 475.555C809.34 509.658 905.637 483.351 962.314 439.791C1037.41 382.052 1106.31 378.383 1142.55 353C1219.47 299.116 1182.82 175.339 1239.56 103.668C1293.71 35.2878 1410.12 -20.9638 1534.55 36.5728" stroke="#3548FE" stroke-opacity="0.41" stroke-width="1.07975" stroke-miterlimit="10"/>
<path d="M6.21564 112.634C112.782 245.235 272.963 185.605 403.162 185.605C491.521 185.605 540.682 231.273 584.384 283.626C629.673 337.871 570.356 453.045 706.37 496.49C815.609 531.388 913.946 492.996 968.566 445.898C1043.19 381.547 1119.81 368.079 1154.73 343C1233.19 286.676 1184.81 168.438 1241.68 93.4452C1294.01 24.4446 1409.2 -32.1823 1535.78 23.6505" stroke="#3548FE" stroke-opacity="0.41" stroke-width="1.07975" stroke-miterlimit="10"/>
</svg>
